<svg xmlns="http://www.w3.org/2000/svg" viewBox="0 0 24 24"><title>44.User</title><g id="_44.User" data-name="44.User"><path d="M10,12a4,4,0,1,1,4-4A4,4,0,0,1,10,12Zm0-6a2,2,0,1,0,2,2A2,2,0,0,0,10,6Z"/><path d="M5,17H3a7.008,7.008,0,0,1,7-7v2A5.006,5.006,0,0,0,5,17Z"/><path d="M19,24H11a4,4,0,0,1-.984-7.877,4.5,4.5,0,0,1,8.259-2.063A5,5,0,1,1,19,24Zm-8.053-6A2,2,0,0,0,11,22h8a3,3,0,1,0-.936-5.832l-.9.3-.347-.88A2.5,2.5,0,0,0,12,16.5a2.3,2.3,0,0,0,.033.313l.167,1.145-1.222.047Z"/><path d="M5.415,18.889a10,10,0,1,1,14.337-6.668l-1.95-.442A8,8,0,1,0,2,10a7.977,7.977,0,0,0,4.333,7.112Z"/></g></svg>